<mxfile host="Electron" agent="Mozilla/5.0 (Macintosh; Intel Mac OS X 10_15_7) AppleWebKit/537.36 (KHTML, like Gecko) draw.io/26.2.2 Chrome/134.0.6998.178 Electron/35.1.2 Safari/537.36" version="26.2.2">
  <diagram name="Page-1" id="B_rIAoltzdCZBAQ1JG6E">
    <mxGraphModel dx="465" dy="1146" grid="1" gridSize="10" guides="1" tooltips="1" connect="1" arrows="1" fold="1" page="1" pageScale="1" pageWidth="1169" pageHeight="827" math="0" shadow="0">
      <root>
        <mxCell id="0" />
        <mxCell id="1" parent="0" />
        <mxCell id="6qrvzQTkh8fd8aNWJM4z-1" value="" style="endArrow=none;dashed=1;html=1;dashPattern=1 3;strokeWidth=2;rounded=0;" edge="1" parent="1">
          <mxGeometry width="50" height="50" relative="1" as="geometry">
            <mxPoint x="150" y="560" as="sourcePoint" />
            <mxPoint x="1020" y="560" as="targetPoint" />
          </mxGeometry>
        </mxCell>
        <mxCell id="6qrvzQTkh8fd8aNWJM4z-2" value="Kernel/Userspace Boundary" style="edgeLabel;html=1;align=center;verticalAlign=middle;resizable=0;points=[];" vertex="1" connectable="0" parent="6qrvzQTkh8fd8aNWJM4z-1">
          <mxGeometry x="-0.0805" y="3" relative="1" as="geometry">
            <mxPoint as="offset" />
          </mxGeometry>
        </mxCell>
        <mxCell id="6qrvzQTkh8fd8aNWJM4z-3" value="sys_enter raw_tp" style="swimlane;whiteSpace=wrap;html=1;" vertex="1" parent="1">
          <mxGeometry x="350" y="20" width="355" height="483.19" as="geometry" />
        </mxCell>
        <mxCell id="6qrvzQTkh8fd8aNWJM4z-14" style="edgeStyle=orthogonalEdgeStyle;rounded=0;orthogonalLoop=1;jettySize=auto;html=1;exitX=0.5;exitY=1;exitDx=0;exitDy=0;entryX=0.5;entryY=0;entryDx=0;entryDy=0;" edge="1" parent="6qrvzQTkh8fd8aNWJM4z-3" source="6qrvzQTkh8fd8aNWJM4z-8" target="6qrvzQTkh8fd8aNWJM4z-12">
          <mxGeometry relative="1" as="geometry" />
        </mxCell>
        <mxCell id="6qrvzQTkh8fd8aNWJM4z-8" value="Associate syscall&lt;div&gt;with .so file&lt;/div&gt;" style="rounded=1;whiteSpace=wrap;html=1;absoluteArcSize=1;arcSize=14;strokeWidth=2;" vertex="1" parent="6qrvzQTkh8fd8aNWJM4z-3">
          <mxGeometry x="60" y="150" width="100" height="60" as="geometry" />
        </mxCell>
        <mxCell id="6qrvzQTkh8fd8aNWJM4z-10" style="edgeStyle=orthogonalEdgeStyle;rounded=0;orthogonalLoop=1;jettySize=auto;html=1;exitX=0.5;exitY=1;exitDx=0;exitDy=0;entryX=0.5;entryY=0;entryDx=0;entryDy=0;" edge="1" parent="6qrvzQTkh8fd8aNWJM4z-3" source="6qrvzQTkh8fd8aNWJM4z-9" target="6qrvzQTkh8fd8aNWJM4z-8">
          <mxGeometry relative="1" as="geometry" />
        </mxCell>
        <mxCell id="6qrvzQTkh8fd8aNWJM4z-9" value="&lt;meta charset=&quot;utf-8&quot;&gt;&lt;span style=&quot;color: rgb(255, 255, 255); font-family: Helvetica; font-size: 12px; font-style: normal; font-variant-ligatures: normal; font-variant-caps: normal; font-weight: 400; letter-spacing: normal; orphans: 2; text-align: center; text-indent: 0px; text-transform: none; widows: 2; word-spacing: 0px; -webkit-text-stroke-width: 0px; white-space: normal; background-color: rgb(27, 29, 30); text-decoration-thickness: initial; text-decoration-style: initial; text-decoration-color: initial; display: inline !important; float: none;&quot;&gt;Find syscall&lt;/span&gt;&lt;div style=&quot;forced-color-adjust: none; box-shadow: none !important; color: rgb(255, 255, 255); font-family: Helvetica; font-size: 12px; font-style: normal; font-variant-ligatures: normal; font-variant-caps: normal; font-weight: 400; letter-spacing: normal; orphans: 2; text-align: center; text-indent: 0px; text-transform: none; widows: 2; word-spacing: 0px; -webkit-text-stroke-width: 0px; white-space: normal; background-color: rgb(27, 29, 30); text-decoration-thickness: initial; text-decoration-style: initial; text-decoration-color: initial;&quot;&gt;site&lt;/div&gt;" style="rounded=1;whiteSpace=wrap;html=1;absoluteArcSize=1;arcSize=14;strokeWidth=2;" vertex="1" parent="6qrvzQTkh8fd8aNWJM4z-3">
          <mxGeometry x="60" y="50" width="100" height="60" as="geometry" />
        </mxCell>
        <mxCell id="6qrvzQTkh8fd8aNWJM4z-24" value="No" style="edgeStyle=orthogonalEdgeStyle;rounded=0;orthogonalLoop=1;jettySize=auto;html=1;exitX=1;exitY=0.5;exitDx=0;exitDy=0;entryX=0;entryY=0.5;entryDx=0;entryDy=0;" edge="1" parent="6qrvzQTkh8fd8aNWJM4z-3" source="6qrvzQTkh8fd8aNWJM4z-12" target="6qrvzQTkh8fd8aNWJM4z-23">
          <mxGeometry relative="1" as="geometry" />
        </mxCell>
        <mxCell id="6qrvzQTkh8fd8aNWJM4z-26" style="edgeStyle=orthogonalEdgeStyle;rounded=0;orthogonalLoop=1;jettySize=auto;html=1;exitX=0.5;exitY=1;exitDx=0;exitDy=0;entryX=0.5;entryY=0;entryDx=0;entryDy=0;" edge="1" parent="6qrvzQTkh8fd8aNWJM4z-3" source="6qrvzQTkh8fd8aNWJM4z-12" target="6qrvzQTkh8fd8aNWJM4z-17">
          <mxGeometry relative="1" as="geometry" />
        </mxCell>
        <mxCell id="6qrvzQTkh8fd8aNWJM4z-27" value="Yes" style="edgeLabel;html=1;align=center;verticalAlign=middle;resizable=0;points=[];" vertex="1" connectable="0" parent="6qrvzQTkh8fd8aNWJM4z-26">
          <mxGeometry x="0.0611" y="-4" relative="1" as="geometry">
            <mxPoint as="offset" />
          </mxGeometry>
        </mxCell>
        <mxCell id="6qrvzQTkh8fd8aNWJM4z-12" value="is&amp;nbsp;&lt;span style=&quot;background-color: transparent; color: light-dark(rgb(0, 0, 0), rgb(255, 255, 255));&quot;&gt;syscall&lt;/span&gt;&lt;div&gt;whitelisted?&lt;/div&gt;" style="rhombus;whiteSpace=wrap;html=1;" vertex="1" parent="6qrvzQTkh8fd8aNWJM4z-3">
          <mxGeometry x="60" y="240" width="100" height="100" as="geometry" />
        </mxCell>
        <mxCell id="6qrvzQTkh8fd8aNWJM4z-17" value="&lt;font style=&quot;color: rgb(0, 0, 0);&quot;&gt;Allow syscall&lt;/font&gt;" style="rounded=1;whiteSpace=wrap;html=1;absoluteArcSize=1;arcSize=14;strokeWidth=2;fillColor=#55FF55;" vertex="1" parent="6qrvzQTkh8fd8aNWJM4z-3">
          <mxGeometry x="60" y="400" width="100" height="60" as="geometry" />
        </mxCell>
        <mxCell id="6qrvzQTkh8fd8aNWJM4z-23" value="Intervene" style="rounded=1;whiteSpace=wrap;html=1;absoluteArcSize=1;arcSize=14;strokeWidth=2;gradientColor=none;fillColor=#FF2727;" vertex="1" parent="6qrvzQTkh8fd8aNWJM4z-3">
          <mxGeometry x="230" y="260" width="100" height="60" as="geometry" />
        </mxCell>
      </root>
    </mxGraphModel>
  </diagram>
</mxfile>
